<svg xmlns="http://www.w3.org/2000/svg" viewBox="0 0 187.37 114.27"><defs><style>.cls-1,.cls-5{fill:none;stroke-miterlimit:10;}.cls-1{stroke:#1d1d1b;stroke-width:0.5px;}.cls-2{fill:#fff;}.cls-3{fill:#1d1d1b;}.cls-4{opacity:0;}.cls-5{stroke:#312783;stroke-width:3px;}</style></defs><g id="Ebene_2" data-name="Ebene 2"><g id="Ebene_1-2" data-name="Ebene 1"><rect class="cls-1" x="58.1" y="0.25" width="65.21" height="110.99" rx="4.17"/><line class="cls-1" x1="57.98" y1="42.54" x2="123.3" y2="42.54"/><line class="cls-1" x1="58.01" y1="46.15" x2="123.34" y2="46.15"/><rect class="cls-1" x="115.22" y="13.45" width="3.75" height="23.54"/><rect class="cls-1" x="115.22" y="50.89" width="3.75" height="23.54"/><rect class="cls-1" x="70.56" y="111.24" width="8.26" height="2.78"/><rect class="cls-1" x="102.3" y="111.24" width="8.26" height="2.78"/><rect class="cls-2" y="49.82" width="187.37" height="36.44"/><path class="cls-3" d="M31.9,68.33c0-4.49-.06-8.66.06-10.76H31.9c-1.07,2.64-6.59,15-9.57,21.55h-.78c-3.2-7.24-8.22-18.69-9.35-21.55h0c.06,1.35,0,7.88,0,11.64v9.91h-.63V57h1C16.15,65.29,21,76.27,22,78.4h0c.78-1.82,6.14-13.68,9.53-21.36h1V79.12H31.9Z"/><path class="cls-3" d="M37,63.53c4.27,10.67,5.71,14.12,6,15.09h0c.47-1.25,2.13-5.43,5.93-15.09h.68L43.38,79.31c-2.16,5.4-3.17,7-5.8,7a6.11,6.11,0,0,1-1.19-.09l.06-.63a5.19,5.19,0,0,0,1.16.1c1.91,0,3-.91,5-6.18L36.29,63.53Z"/><path class="cls-3" d="M56.21,57.16H69l-.31,1.51H57.56l-1.78,8.47H66.19l-.31,1.47H55.43L53.27,79.12h-1.7Z"/><path class="cls-3" d="M76.73,64.82c-3.07.31-5.46,3-6.21,6.59l-1.63,7.71H67.35l2.35-11c.32-1.54.66-3.2.91-4.64h1.48c0,.4-.35,2.22-.66,3.6a6.66,6.66,0,0,1,5.71-3.92Z"/><path class="cls-3" d="M80.69,63.44h1.53L78.9,79.12H77.36ZM82.25,56h1.54l-.66,3.08H81.59Z"/><path class="cls-3" d="M100.73,56l-4,18.67c-.31,1.5-.63,3-.88,4.45H94.4c0-.37.28-1.75.53-2.88a6.05,6.05,0,0,1-5.65,3.2c-3.39,0-5-2.64-5-6,0-4.51,2.64-10.29,8.13-10.29,3,0,4.3,1.76,4.61,2.95L99.2,56ZM85.93,73.29c0,3.26,1.5,4.64,3.76,4.64,3.73,0,5.71-3.45,6.43-7.12s-.38-6.21-3.86-6.21C88.09,64.6,85.93,69.43,85.93,73.29Z"/><path class="cls-3" d="M113.09,78.06c-1,4.89-2.7,7.65-7.65,7.65-4.77,0-5.49-2.76-5.46-4.58h1.54c0,1.73,1.22,3.2,4.17,3.2,3.92,0,5-2.73,6-6.68l.44-2a6,6,0,0,1-5.52,3.48c-2.95,0-5-2-5-6,0-4.67,2.66-10,7.9-10,3,0,4.4,1.7,4.62,3,.22-.91.53-2.16.72-2.66h1.47c-.31,1.28-.66,2.85-1,4.3Zm-9.94-5c0,3.13,1.38,4.61,3.76,4.61,3.39,0,5.46-3.27,6.25-6.81s-.35-6.21-3.86-6.21C105.34,64.6,103.15,68.74,103.15,73Z"/><path class="cls-3" d="M120,71.28a13.74,13.74,0,0,0-.16,1.88c0,3.3,1.66,4.83,4.11,4.83a5,5,0,0,0,4.77-3.07h1.63c-1.13,2.51-3,4.52-6.65,4.52s-5.43-2.58-5.43-6.09c0-4.61,2.51-10.23,8-10.23,4,0,5.21,2.7,5.21,5.31a10.36,10.36,0,0,1-.38,2.85Zm9.85-1.41a7.25,7.25,0,0,0,.12-1.41c0-2.64-1.28-3.92-3.83-3.92-2.72,0-4.83,1.91-5.8,5.33Z"/><path class="cls-3" d="M135.56,57h.62V78.56h12.49l-.22.56H135.56Z"/><path class="cls-3" d="M152.56,58.42V55.56h.63v2.86Zm0,5.11h.63V79.12h-.63Z"/><path class="cls-3" d="M157.8,75c.53,2.64,2.07,4,5.14,4s4.68-1.63,4.68-3.6-.82-3.14-4.83-4.21S158,69,158,67s1.5-3.8,4.83-3.8S167.74,65,168,67.39h-.62c-.25-1.73-1.38-3.67-4.58-3.67-3,0-4.17,1.57-4.17,3.17,0,1.82.84,2.79,4.42,3.7,4.08,1,5.24,2.38,5.24,4.67,0,2.61-2.1,4.24-5.34,4.24-3.67,0-5.33-1.76-5.77-4.52Z"/><path class="cls-3" d="M170.07,63.53H173V58.36h.63v5.17h3.89v.57h-3.89V75.89c0,1.7.35,3,2.29,3a3.75,3.75,0,0,0,1.26-.16v.57a3.85,3.85,0,0,1-1.29.19c-2.07,0-2.89-.91-2.89-3.71V64.1h-2.91Z"/><path class="cls-3" d="M31.9,68.33c0-4.49-.06-8.66.06-10.76H31.9c-1.07,2.64-6.59,15-9.57,21.55h-.78c-3.2-7.24-8.22-18.69-9.35-21.55h0c.06,1.35,0,7.88,0,11.64v9.91h-.63V57h1C16.15,65.29,21,76.27,22,78.4h0c.78-1.82,6.14-13.68,9.53-21.36h1V79.12H31.9Z"/><path class="cls-3" d="M37,63.53c4.27,10.67,5.71,14.12,6,15.09h0c.47-1.25,2.13-5.43,5.93-15.09h.68L43.38,79.31c-2.16,5.4-3.17,7-5.8,7a6.11,6.11,0,0,1-1.19-.09l.06-.63a5.19,5.19,0,0,0,1.16.1c1.91,0,3-.91,5-6.18L36.29,63.53Z"/><path class="cls-3" d="M56.21,57.16H69l-.31,1.51H57.56l-1.78,8.47H66.19l-.31,1.47H55.43L53.27,79.12h-1.7Z"/><path class="cls-3" d="M76.73,64.82c-3.07.31-5.46,3-6.21,6.59l-1.63,7.71H67.35l2.35-11c.32-1.54.66-3.2.91-4.64h1.48c0,.4-.35,2.22-.66,3.6a6.66,6.66,0,0,1,5.71-3.92Z"/><path class="cls-3" d="M80.69,63.44h1.53L78.9,79.12H77.36ZM82.25,56h1.54l-.66,3.08H81.59Z"/><path class="cls-3" d="M100.73,56l-4,18.67c-.31,1.5-.63,3-.88,4.45H94.4c0-.37.28-1.75.53-2.88a6.05,6.05,0,0,1-5.65,3.2c-3.39,0-5-2.64-5-6,0-4.51,2.64-10.29,8.13-10.29,3,0,4.3,1.76,4.61,2.95L99.2,56ZM85.93,73.29c0,3.26,1.5,4.64,3.76,4.64,3.73,0,5.71-3.45,6.43-7.12s-.38-6.21-3.86-6.21C88.09,64.6,85.93,69.43,85.93,73.29Z"/><path class="cls-3" d="M113.09,78.06c-1,4.89-2.7,7.65-7.65,7.65-4.77,0-5.49-2.76-5.46-4.58h1.54c0,1.73,1.22,3.2,4.17,3.2,3.92,0,5-2.73,6-6.68l.44-2a6,6,0,0,1-5.52,3.48c-2.95,0-5-2-5-6,0-4.67,2.66-10,7.9-10,3,0,4.4,1.7,4.62,3,.22-.91.53-2.16.72-2.66h1.47c-.31,1.28-.66,2.85-1,4.3Zm-9.94-5c0,3.13,1.38,4.61,3.76,4.61,3.39,0,5.46-3.27,6.25-6.81s-.35-6.21-3.86-6.21C105.34,64.6,103.15,68.74,103.15,73Z"/><path class="cls-3" d="M120,71.28a13.74,13.74,0,0,0-.16,1.88c0,3.3,1.66,4.83,4.11,4.83a5,5,0,0,0,4.77-3.07h1.63c-1.13,2.51-3,4.52-6.65,4.52s-5.43-2.58-5.43-6.09c0-4.61,2.51-10.23,8-10.23,4,0,5.21,2.7,5.21,5.31a10.36,10.36,0,0,1-.38,2.85Zm9.85-1.41a7.25,7.25,0,0,0,.12-1.41c0-2.64-1.28-3.92-3.83-3.92-2.72,0-4.83,1.91-5.8,5.33Z"/><path class="cls-3" d="M135.56,57h.62V78.56h12.49l-.22.56H135.56Z"/><path class="cls-3" d="M152.56,58.42V55.56h.63v2.86Zm0,5.11h.63V79.12h-.63Z"/><path class="cls-3" d="M157.8,75c.53,2.64,2.07,4,5.14,4s4.68-1.63,4.68-3.6-.82-3.14-4.83-4.21S158,69,158,67s1.5-3.8,4.83-3.8S167.74,65,168,67.39h-.62c-.25-1.73-1.38-3.67-4.58-3.67-3,0-4.17,1.57-4.17,3.17,0,1.82.84,2.79,4.42,3.7,4.08,1,5.24,2.38,5.24,4.67,0,2.61-2.1,4.24-5.34,4.24-3.67,0-5.33-1.76-5.77-4.52Z"/><path class="cls-3" d="M170.07,63.53H173V58.36h.63v5.17h3.89v.57h-3.89V75.89c0,1.7.35,3,2.29,3a3.75,3.75,0,0,0,1.26-.16v.57a3.85,3.85,0,0,1-1.29.19c-2.07,0-2.89-.91-2.89-3.71V64.1h-2.91Z"/><g class="cls-4"><path class="cls-5" d="M31.9,68.33c0-4.49-.06-8.66.06-10.76H31.9c-1.07,2.64-6.59,15-9.57,21.55h-.78c-3.2-7.24-8.22-18.69-9.35-21.55h0c.06,1.35,0,7.88,0,11.64v9.91h-.63V57h1C16.15,65.29,21,76.27,22,78.4h0c.78-1.82,6.14-13.68,9.53-21.36h1V79.12H31.9Z"/><path class="cls-5" d="M37,63.53c4.27,10.67,5.71,14.12,6,15.09h0c.47-1.25,2.13-5.43,5.93-15.09h.68L43.38,79.31c-2.16,5.4-3.17,7-5.8,7a6.11,6.11,0,0,1-1.19-.09l.06-.63a5.19,5.19,0,0,0,1.16.1c1.91,0,3-.91,5-6.18L36.29,63.53Z"/><path class="cls-5" d="M56.21,57.16H69l-.31,1.51H57.56l-1.78,8.47H66.19l-.31,1.47H55.43L53.27,79.12h-1.7Z"/><path class="cls-5" d="M76.73,64.82c-3.07.31-5.46,3-6.21,6.59l-1.63,7.71H67.35l2.35-11c.32-1.54.66-3.2.91-4.64h1.48c0,.4-.35,2.22-.66,3.6a6.66,6.66,0,0,1,5.71-3.92Z"/><path class="cls-5" d="M80.69,63.44h1.53L78.9,79.12H77.36ZM82.25,56h1.54l-.66,3.08H81.59Z"/><path class="cls-5" d="M100.73,56l-4,18.67c-.31,1.5-.63,3-.88,4.45H94.4c0-.37.28-1.75.53-2.88a6.05,6.05,0,0,1-5.65,3.2c-3.39,0-5-2.64-5-6,0-4.51,2.64-10.29,8.13-10.29,3,0,4.3,1.76,4.61,2.95L99.2,56ZM85.93,73.29c0,3.26,1.5,4.64,3.76,4.64,3.73,0,5.71-3.45,6.43-7.12s-.38-6.21-3.86-6.21C88.09,64.6,85.93,69.43,85.93,73.29Z"/><path class="cls-5" d="M113.09,78.06c-1,4.89-2.7,7.65-7.65,7.65-4.77,0-5.49-2.76-5.46-4.58h1.54c0,1.73,1.22,3.2,4.17,3.2,3.92,0,5-2.73,6-6.68l.44-2a6,6,0,0,1-5.52,3.48c-2.95,0-5-2-5-6,0-4.67,2.66-10,7.9-10,3,0,4.4,1.7,4.62,3,.22-.91.53-2.16.72-2.66h1.47c-.31,1.28-.66,2.85-1,4.3Zm-9.94-5c0,3.13,1.38,4.61,3.76,4.61,3.39,0,5.46-3.27,6.25-6.81s-.35-6.21-3.86-6.21C105.34,64.6,103.15,68.74,103.15,73Z"/><path class="cls-5" d="M120,71.28a13.74,13.74,0,0,0-.16,1.88c0,3.3,1.66,4.83,4.11,4.83a5,5,0,0,0,4.77-3.07h1.63c-1.13,2.51-3,4.52-6.65,4.52s-5.43-2.58-5.43-6.09c0-4.61,2.51-10.23,8-10.23,4,0,5.21,2.7,5.21,5.31a10.36,10.36,0,0,1-.38,2.85Zm9.85-1.41a7.25,7.25,0,0,0,.12-1.41c0-2.64-1.28-3.92-3.83-3.92-2.72,0-4.83,1.91-5.8,5.33Z"/><path class="cls-5" d="M135.56,57h.62V78.56h12.49l-.22.56H135.56Z"/><path class="cls-5" d="M152.56,58.42V55.56h.63v2.86Zm0,5.11h.63V79.12h-.63Z"/><path class="cls-5" d="M157.8,75c.53,2.64,2.07,4,5.14,4s4.68-1.63,4.68-3.6-.82-3.14-4.83-4.21S158,69,158,67s1.5-3.8,4.83-3.8S167.74,65,168,67.39h-.62c-.25-1.73-1.38-3.67-4.58-3.67-3,0-4.17,1.57-4.17,3.17,0,1.82.84,2.79,4.42,3.7,4.08,1,5.24,2.38,5.24,4.67,0,2.61-2.1,4.24-5.34,4.24-3.67,0-5.33-1.76-5.77-4.52Z"/><path class="cls-5" d="M170.07,63.53H173V58.36h.63v5.17h3.89v.57h-3.89V75.89c0,1.7.35,3,2.29,3a3.75,3.75,0,0,0,1.26-.16v.57a3.85,3.85,0,0,1-1.29.19c-2.07,0-2.89-.91-2.89-3.71V64.1h-2.91Z"/></g></g></g></svg>