<?xml version="1.0" encoding="utf-8"?>
<!-- Generator: Adobe Illustrator 23.0.1, SVG Export Plug-In . SVG Version: 6.00 Build 0)  -->
<svg version="1.1" id="Ebene_1" xmlns="http://www.w3.org/2000/svg" xmlns:xlink="http://www.w3.org/1999/xlink" x="0px" y="0px"
	 viewBox="0 0 407.52 589.01" style="enable-background:new 0 0 407.52 589.01;" xml:space="preserve">
<style type="text/css">
	.st0{fill:#353B5B;}
	.st1{fill:#CEB23A;}
	.st2{fill:#AD9017;}
	.st3{fill:#FBF9FA;}
	.st4{fill:#FFFFFF;}
	.st5{fill:#D45572;}
	.st6{fill:#D15672;}
	.st7{fill:#343A5A;}
</style>
<g>
	<g>
		<path class="st0" d="M0.01,293.91c0-76.3-0.02-152.62,0-228.91c0-37.59,27.08-64.9,64.64-64.93c92.82-0.07,185.63-0.09,278.45,0
			c37.03,0.04,64.39,27.42,64.41,64.22c0.02,153.55,0.02,307.1,0,460.63c0,36.28-27.33,63.92-63.68,63.98
			c-93.44,0.15-186.88,0.15-280.32,0c-36.3-0.06-63.46-27.79-63.48-64.21C-0.03,447.78,0.01,370.85,0.01,293.91z M378.96,243.91
			c0-8.3,0-16.6,0-25.29c-117.12,0-233.36,0-350.22,0c0,9.38,0,18.3,0,27.23c-0.13,3.72-0.39,7.46-0.39,11.18
			c-0.02,73.18-0.04,146.37,0,219.55c0,14.64,0.24,29.25,0.37,43.89c-1.63,23.46,13.1,39.61,36.39,39.63
			c92.41,0.04,184.84,0.04,277.25,0c23.33-0.02,38.02-16.09,36.39-39.63c0.06-91.48,0.09-182.95,0.15-274.45
			C378.94,245.31,378.94,244.6,378.96,243.91z M31.02,51.5c-0.49,1.74-0.97,3.5-1.46,5.23c-0.24,0.73-0.47,1.46-0.71,2.19
			c-0.07,35.48-0.13,70.95-0.21,106.43c0,7.94,0,15.89,0,23.78c117.31,0,233.51,0,350.19,0c0-8.37,0-16.07,0-23.79
			c-0.06-35.48-0.13-70.93-0.19-106.41c-0.24-0.73-0.49-1.46-0.71-2.19c-0.49-1.76-0.97-3.5-1.46-5.25
			c-5.74-14.56-16.67-22.65-31.83-22.67c-93.92-0.09-187.85-0.09-281.76,0C47.69,28.85,36.78,36.94,31.02,51.5z"/>
		<path class="st1" d="M378.93,246.02c-0.06,91.48-0.09,182.95-0.15,274.45c-116.69,0-233.36,0-350.05,0
			c-0.13-14.64-0.37-29.25-0.37-43.89c-0.04-73.18-0.02-146.37,0-219.55c0-3.72,0.26-7.46,0.39-11.18
			c116.15-0.02,232.32-0.04,348.47-0.06C377.79,245.87,378.35,245.95,378.93,246.02z M71.04,350.98c0-8.69-0.07-17.36,0.02-26.06
			c0.07-6.32-2.86-10.45-9.1-10.64c-6.11-0.17-9.81,3.53-9.83,9.94c-0.07,17.68-0.06,35.36,0.02,53.05c0.02,5.94,3.35,9.53,9.1,9.64
			c6.19,0.13,9.74-3.44,9.78-9.89C71.08,368.34,71.04,359.65,71.04,350.98z"/>
		<path class="st1" d="M28.67,165.35c0.07-35.48,0.13-70.95,0.19-106.43c0.24-0.73,0.47-1.46,0.71-2.19
			c0.49-1.74,0.97-3.5,1.46-5.23c36.73,0.07,73.44,0.22,110.17,0.22c78.43-0.02,156.86-0.15,235.27-0.22
			c0.49,1.76,0.97,3.5,1.46,5.25c0.24,0.73,0.49,1.46,0.73,2.19c0.06,35.48,0.13,70.93,0.19,106.41
			c-20.86,0.07-41.7,0.22-62.56,0.21C220.4,165.52,124.53,165.43,28.67,165.35z M52.11,107.2c0,8.69,0,17.38,0,26.06
			c0,6.3,2.95,10.15,9.42,10.19c6.45,0.04,9.51-3.66,9.51-10.04c0-17.38-0.04-34.75,0.02-52.13c0.02-6.43-3.48-10.34-9.42-10.45
			c-6.06-0.11-9.5,4-9.53,10.3C52.07,89.82,52.11,98.51,52.11,107.2z"/>
		<path class="st2" d="M28.72,520.47c116.69,0,233.36,0,350.05,0c1.61,23.53-13.07,39.61-36.39,39.63
			c-92.41,0.04-184.84,0.04-277.25,0C41.83,560.08,27.1,543.93,28.72,520.47z"/>
		<path class="st3" d="M377.21,245.78c-116.15,0.02-232.32,0.04-348.47,0.06c0-8.92,0-17.85,0-27.23c116.86,0,233.1,0,350.22,0
			c0,8.69,0,16.99,0,25.29C378.37,244.53,377.79,245.16,377.21,245.78z"/>
		<path class="st2" d="M28.67,165.35c95.87,0.07,191.74,0.17,287.62,0.21c20.86,0.02,41.7-0.13,62.56-0.21c0,7.7,0,15.42,0,23.79
			c-116.65,0-232.88,0-350.18,0C28.67,181.24,28.67,173.3,28.67,165.35z"/>
		<path class="st4" d="M376.48,51.5c-78.43,0.07-156.86,0.19-235.27,0.22c-36.73,0.02-73.44-0.15-110.17-0.22
			c5.74-14.56,16.67-22.65,31.83-22.67c93.92-0.09,187.85-0.09,281.76,0C359.79,28.85,370.72,36.94,376.48,51.5z"/>
		<path class="st5" d="M29.56,56.75c-0.24,0.73-0.47,1.46-0.71,2.19C29.1,58.21,29.32,57.48,29.56,56.75z"/>
		<path class="st5" d="M378.65,58.94c-0.24-0.73-0.49-1.46-0.73-2.19C378.18,57.48,378.4,58.21,378.65,58.94z"/>
		<path class="st6" d="M377.21,245.78c0.58-0.64,1.16-1.25,1.76-1.89c-0.02,0.71-0.02,1.4-0.04,2.11
			C378.35,245.95,377.79,245.87,377.21,245.78z"/>
		<path class="st7" d="M71.04,350.98c0,8.69,0.04,17.36-0.02,26.06c-0.04,6.45-3.59,10-9.78,9.89c-5.76-0.11-9.08-3.7-9.1-9.64
			c-0.07-17.68-0.07-35.36-0.02-53.05c0.02-6.41,3.72-10.11,9.83-9.94c6.22,0.17,9.18,4.32,9.1,10.64
			C70.97,333.59,71.04,342.29,71.04,350.98z"/>
		<path class="st7" d="M52.11,107.2c0-8.69-0.04-17.38,0.02-26.06c0.04-6.3,3.46-10.39,9.53-10.3c5.94,0.09,9.44,4,9.42,10.45
			c-0.06,17.38-0.02,34.75-0.02,52.13c0,6.37-3.07,10.09-9.51,10.04c-6.47-0.04-9.42-3.89-9.42-10.19
			C52.09,124.57,52.11,115.88,52.11,107.2z"/>
	</g>
</g>
</svg>
